<?xml version="1.0" encoding="utf-8"?>
<!-- Generator: Adobe Illustrator 21.0.0, SVG Export Plug-In . SVG Version: 6.00 Build 0)  -->
<svg version="1.1" id="Layer_1" xmlns="http://www.w3.org/2000/svg" xmlns:xlink="http://www.w3.org/1999/xlink" x="0px" y="0px"
	 viewBox="0 0 500 500" style="enable-background:new 0 0 500 500;" xml:space="preserve">
<style type="text/css">
	.st0{fill:#FFFFFF;}
	.st1{fill:#E7F5F1;}
	.st2{fill:#CAE5DD;}
	.st3{opacity:0.5;fill:#9DC0B7;enable-background:new    ;}
	.st4{fill:#F1F2F2;}
	.st5{fill:#BE1E2D;}
	.st6{fill:#DE4553;}
	.st7{fill:#FBC399;}
	.st8{fill:#EA9975;}
	.st9{fill:#383735;}
	.st10{fill:#414042;}
	.st11{fill:none;stroke:#231F20;stroke-width:0.8231;stroke-miterlimit:10;}
	.st12{fill:#231F20;}
	.st13{fill:none;stroke:#BE1E2D;stroke-width:3.2922;stroke-linecap:round;stroke-linejoin:round;stroke-miterlimit:10;}
	.st14{fill:#DC3545;}
	.st15{fill:#7A131D;}
	.st16{fill:#931628;}
	.st17{fill:none;stroke:#231F20;stroke-width:0.5297;stroke-miterlimit:10;}
	.st18{fill:none;stroke:#000000;stroke-width:2.1188;stroke-linecap:round;stroke-linejoin:round;stroke-miterlimit:10;}
	.st19{fill:none;stroke:#BE1E2D;stroke-width:5.6607;stroke-linecap:round;stroke-linejoin:round;stroke-miterlimit:10;}
	.st20{fill:#D1D3D4;}
	
		.st21{display:none;fill:none;stroke:#BE1E2D;stroke-width:6.0614;stroke-linecap:round;stroke-linejoin:round;stroke-miterlimit:10;}
</style>
<g>
	<rect class="st0" width="500" height="500"/>
</g>
<g id="BACKGROUND">
	<polyline class="st1" points="0,500 0,0 500,0 500,500 	"/>
	<rect y="496" class="st2" width="500" height="4"/>
</g>
<g id="OBJECTS">
	<g>
		<g>
			<path class="st3" d="M387.5,321v-10.4c0-3-2.5-5.5-5.5-5.5h-5.2c-3,0-5.5,2.5-5.5,5.5v10.7c-27.4,4-30.1,24.1-30.1,24.1
				s-2.8-21.3-32.4-24.4v-10.4c0-3-2.5-5.5-5.5-5.5h-5.2c-3,0-5.5,2.5-5.5,5.5v10.8c-30,5.8-39,42.1-16.9,74.6
				c24.2,35.4,50.6,53.5,65.4,53.5s41.2-18,65.4-53.5C429.5,362.7,419.4,325.3,387.5,321z"/>
			<path class="st4" d="M379.2,321c-35.9,0-39.1,24.2-39.1,24.2s-3.1-24.2-39-24.2s-48.5,39.1-24.9,73.7s49.5,52.3,63.9,52.3
				c14.5,0,40.3-17.6,63.9-52.3C427.7,360,415.1,321,379.2,321z"/>
			<path class="st4" d="M299.2,343.8h-5.6c-3.3,0-6-2.7-6-6V304c0-3.3,2.7-6,6-6h5.6c3.3,0,6,2.7,6,6v33.8
				C305.1,341.1,302.4,343.8,299.2,343.8z"/>
			<path class="st4" d="M385,343.8h-5.6c-3.3,0-6-2.7-6-6V304c0-3.3,2.7-6,6-6h5.6c3.3,0,6,2.7,6,6v33.8
				C391,341.1,388.3,343.8,385,343.8z"/>
			<path class="st5" d="M407.9,341.9c-4.4-8.4-10.4-14-27-14c-16.5,0-26,8.3-28.8,13.5s-7.8,10.9-11.5,10.9
				c-3.8,0-8.7-5.7-11.5-10.9c-2.8-5.2-12.3-13.5-28.8-13.5s-22.5,5.7-27,14c-6.6,12.5-3.6,31.1,7.5,47.5
				c26.9,39.5,51.9,52.3,59.8,52.3s32.9-12.8,59.8-52.3C411.5,373,414.5,354.4,407.9,341.9z"/>
			<ellipse class="st5" cx="296.3" cy="327.8" rx="5.7" ry="21.3"/>
			<ellipse class="st5" cx="382.2" cy="327.8" rx="5.7" ry="21.3"/>
			<g>
				<path class="st6" d="M342.3,432.8c-0.7-0.1-1.5-0.2-2.2-0.5c-1.3-0.5-14.3-4.2-39-28c-25.1-28.2-23.5-52.4-23.4-53.5
					c0.2-3.1,2.7-5.3,5.2-4.9s4.3,3.2,4.2,6.3c0,0.9,0.5,20.2,23.5,42.7c21.2,24.3,32.8,28.8,32.9,28.9c2.8,1.3,4.3,4.3,3.4,6.6
					C346.2,432.1,344.4,433,342.3,432.8z"/>
			</g>
		</g>
		<g>
			<path class="st3" d="M190.5,223.4c0-0.5,0.1-0.9,0.1-1.4c0-0.2,0-0.5,0-0.7c0-0.4,0-0.7-0.1-1.1c-0.1-0.7-0.2-1.4-0.4-2.1
				c-0.1-0.4-0.3-0.8-0.4-1.2c-0.1-0.2-0.1-0.3-0.2-0.4c-0.1-0.2-0.2-0.4-0.3-0.6c-1.2-2.5-3.3-4.4-5.9-5.3l0,0
				c-5.6-2.1-11.5,1-13.1,6.3c-1.8,6.2-6.2,19.7-10.1,33.3l7.2-51.5c0-0.2,0-0.4,0.1-0.6c0-0.1,0-0.1,0-0.2c0-0.1,0-0.3,0-0.4
				c0-0.1,0-0.2,0-0.2c0-0.1,0-0.2,0-0.3s0-0.2,0-0.2c0-0.1,0-0.2,0-0.3s0-0.2,0-0.3s0-0.2,0-0.3s0-0.2,0-0.3s0-0.2,0-0.3
				s0-0.2,0-0.3s0-0.2-0.1-0.3c0-0.1,0-0.2-0.1-0.3c0-0.1,0-0.2-0.1-0.3c0-0.1,0-0.2-0.1-0.3c0-0.1,0-0.2-0.1-0.2
				c0-0.1-0.1-0.2-0.1-0.3s0-0.1-0.1-0.2c0-0.1-0.1-0.2-0.1-0.3s0-0.1-0.1-0.2c0-0.1-0.1-0.2-0.1-0.3c0,0,0-0.1-0.1-0.1
				c-0.6-1.2-1.3-2.4-2.3-3.3l0,0c-1.7-1.8-4.1-3-6.7-3.4c-6.4-0.9-12.2,3.5-13.1,9.9l-7.4,53.2l0.1-64.9c0-6.8-5.5-12.3-12.2-12.3
				c-6.8,0-12.3,5.5-12.3,12.2l-0.1,69c-0.2,0.1-0.5,0.2-0.7,0.2l-2.7-55.5c0-0.2,0-0.4,0-0.6c0-0.1,0-0.1,0-0.2
				c0-0.1,0-0.3-0.1-0.4c0-0.1,0-0.2,0-0.2c0-0.1,0-0.2-0.1-0.4c0-0.1,0-0.2-0.1-0.3c0-0.1,0-0.2-0.1-0.3c0-0.1,0-0.2-0.1-0.3
				c0-0.1-0.1-0.2-0.1-0.3s-0.1-0.2-0.1-0.3s-0.1-0.2-0.1-0.3s-0.1-0.2-0.1-0.3s-0.1-0.2-0.1-0.3s-0.1-0.2-0.1-0.3
				c0,0,0-0.1-0.1-0.1c-0.2-0.5-0.4-0.9-0.7-1.3c0,0,0,0,0-0.1c-0.1-0.1-0.2-0.3-0.3-0.4c0,0,0,0,0-0.1c-0.1-0.1-0.2-0.3-0.3-0.4
				l0,0c-0.1-0.1-0.2-0.3-0.3-0.4l0,0c-2.5-3.2-6.4-5.2-10.8-5h-0.1c-7.1,0.4-12.5,6.4-12.1,13.5l3.6,73.9c-4,6.5-6.2,14.1-6,22.1
				v0.6c-6.9-7-14.2-16-20-27.2c-0.1-0.2-0.2-0.4-0.3-0.6c0-0.1-0.1-0.1-0.1-0.2c-0.1-0.1-0.1-0.2-0.2-0.4c0-0.1-0.1-0.1-0.1-0.2
				c-0.1-0.1-0.1-0.2-0.2-0.3c-0.1-0.1-0.1-0.1-0.2-0.2c-0.1-0.1-0.1-0.2-0.2-0.3c-0.1-0.1-0.1-0.1-0.2-0.2
				c-0.1-0.1-0.2-0.2-0.2-0.3c-0.1-0.1-0.1-0.1-0.2-0.2c-0.1-0.1-0.2-0.2-0.2-0.3c-0.1-0.1-0.1-0.1-0.2-0.2
				c-0.1-0.1-0.2-0.2-0.3-0.2c-0.1-0.1-0.1-0.1-0.2-0.2c-0.1-0.1-0.3-0.3-0.4-0.4c-0.1-0.1-0.2-0.1-0.3-0.2s-0.1-0.1-0.2-0.2
				c-0.1-0.1-0.2-0.1-0.3-0.2c-0.1,0-0.1-0.1-0.2-0.1c-0.1-0.1-0.2-0.1-0.3-0.2c-0.1,0-0.1-0.1-0.2-0.1c-0.1-0.1-0.2-0.1-0.3-0.2
				c-0.1,0-0.1-0.1-0.2-0.1c-0.1-0.1-0.2-0.1-0.4-0.2c0,0-0.1,0-0.1-0.1c-0.1-0.1-0.3-0.1-0.4-0.2l0,0c-3.5-1.6-7.8-1.7-11.5,0.3
				c-6.4,3.3-8.8,11.2-5.5,17.5c11.4,22,27.1,37,39,46.2l0,0l0,0c3.6,2.8,6.8,5,9.5,6.7c11.2,8.6,19.4,18.4,19.4,32.4l0,0
				c-0.5,20-0.9,45.5-0.7,73.9c0,2.5,0,4.9,0,7.3h-0.5c-3.6,0-6.5,2.9-6.5,6.5V475c0,1,0.2,2,0.7,2.8l0,0l0,0c0.3,0.5,0.6,1,1,1.5
				l0,0c0.3,0.3,0.6,0.6,0.9,0.8c0.1,0,0.1,0.1,0.2,0.1c0.1,0.1,0.2,0.1,0.3,0.2c0.1,0.1,0.2,0.1,0.2,0.1c0.1,0.1,0.2,0.1,0.3,0.2
				c0.1,0.1,0.2,0.1,0.3,0.2c0.1,0,0.1,0.1,0.2,0.1s0.2,0.1,0.4,0.1c0.1,0,0.1,0,0.2,0.1c0.2,0.1,0.4,0.1,0.5,0.1h0.1
				c0.1,0,0.3,0,0.4,0.1c0.1,0,0.1,0,0.2,0c0.2,0,0.4,0,0.6,0h1c0.2,6.6,0.4,13.1,0.6,19.5c0,0.1,0,0.2,0,0.3c0,1,0.1,2,0.1,3
				c0,0.2,0,0.3,0,0.5c0,1,0.1,1.9,0.1,2.9c0,0.1,0,0.3,0,0.4c0,1,0.1,2,0.1,2.9c0,0.1,0,0.2,0,0.3c0.3,6.4,0.6,12.6,0.9,18.7
				c0,0.1,0,0.3,0,0.4c0,0.9,0.1,1.8,0.1,2.6c0,0.2,0,0.4,0,0.6c0,0.8,0.1,1.7,0.1,2.5c0,0.2,0,0.5,0,0.7c0,0.8,0.1,1.7,0.1,2.5
				c0,0.2,0,0.5,0,0.7c0.1,0.8,0.1,1.7,0.2,2.5c0,0.2,0,0.4,0,0.6c0.1,0.9,0.1,1.8,0.2,2.6l0,0c0.3,3.9,0.5,7.7,0.8,11.4
				c0,0.2,0,0.4,0,0.6c0.1,0.7,0.1,1.5,0.2,2.2c0,0.3,0,0.6,0.1,0.9c0.1,0.7,0.1,1.4,0.2,2.1c0,0.3,0.1,0.6,0.1,1
				c0.1,0.7,0.1,1.3,0.2,2c0,0.3,0.1,0.7,0.1,1c0.1,0.7,0.1,1.3,0.2,2c0,0.3,0.1,0.7,0.1,1c0.1,0.7,0.1,1.3,0.2,2
				c0,0.3,0.1,0.6,0.1,0.9c0.1,0.7,0.1,1.4,0.2,2.1c0,0.1,0,0.3,0,0.4c0.2,2.4,0.4,4.8,0.7,7.1c0,0.3,0.1,0.6,0.1,0.9
				c0.1,0.6,0.1,1.2,0.2,1.8c0,0.4,0.1,0.7,0.1,1.1c0.1,0.6,0.1,1.1,0.2,1.7c0,0.4,0.1,0.8,0.1,1.2c0.1,0.5,0.1,1.1,0.2,1.6
				c0,0.4,0.1,0.8,0.1,1.2c0.1,0.5,0.1,1,0.2,1.6c0,0.4,0.1,0.8,0.1,1.2c0.1,0.5,0.1,1,0.2,1.5c0,0.4,0.1,0.8,0.1,1.2
				c0.1,0.5,0.1,1,0.2,1.5c0,0.4,0.1,0.8,0.1,1.2c0.1,0.5,0.1,1,0.2,1.5c0.1,0.4,0.1,0.9,0.2,1.3c0.1,0.8,0.2,1.7,0.3,2.5
				c0.1,0.5,0.1,1,0.2,1.4s0.1,0.9,0.2,1.3c0.1,0.5,0.1,0.9,0.2,1.4c0.1,0.4,0.1,0.9,0.2,1.3c0.1,0.5,0.1,0.9,0.2,1.4
				c0.1,0.4,0.1,0.8,0.2,1.3s0.1,0.9,0.2,1.3c0.1,0.4,0.1,0.8,0.2,1.2c0.1,0.5,0.1,0.9,0.2,1.4c0.1,0.4,0.1,0.8,0.2,1.2
				c0.1,0.5,0.1,0.9,0.2,1.4c0.1,0.4,0.1,0.8,0.2,1.2c0.1,0.5,0.1,1,0.2,1.4s0.1,0.7,0.2,1.1c0.1,0.6,0.2,1.1,0.3,1.7
				c0,0.3,0.1,0.5,0.1,0.8c0.1,0.8,0.3,1.6,0.4,2.4c0,0.3,0.1,0.5,0.1,0.8c0.1,0.6,0.2,1.1,0.3,1.7c0.1,0.3,0.1,0.6,0.2,1
				c0.1,0.5,0.2,1,0.2,1.5c0.1,0.3,0.1,0.7,0.2,1c0.1,0.5,0.2,0.9,0.2,1.4c0.1,0.3,0.1,0.7,0.2,1c0.1,0.5,0.2,0.9,0.2,1.4
				c0.1,0.3,0.1,0.7,0.2,1c0.1,0.5,0.2,0.9,0.2,1.4c0.1,0.3,0.1,0.7,0.2,1c0.1,0.5,0.2,0.9,0.3,1.4c0.1,0.3,0.1,0.6,0.2,0.9
				c0.1,0.5,0.2,1,0.3,1.5c0,0.3,0.1,0.5,0.1,0.8c0.1,0.7,0.3,1.5,0.4,2.2l0,0c2.4,11.9,12.1,20.5,23.6,21.9l0,0
				c0.3,0,0.6,0.1,0.9,0.1c0.2,0,0.3,0,0.5,0s0.4,0,0.6,0c0.1,0,0.3,0,0.4,0c0.3,0,0.7,0,1,0l0,0c1.8,0,3.6-0.2,5.4-0.5
				c13.1-2.6,22.1-14.1,22.1-26.9c0-1.8-0.2-3.7-0.5-5.6c-0.2-0.8-0.3-1.6-0.5-2.5c0-0.2-0.1-0.4-0.1-0.6c0-0.1,0-0.2-0.1-0.3
				c-0.1-0.6-0.2-1.1-0.3-1.7c0-0.2-0.1-0.4-0.1-0.6c0-0.2-0.1-0.3-0.1-0.5c-0.1-0.5-0.2-1-0.3-1.5c0-0.2-0.1-0.3-0.1-0.5
				s-0.1-0.4-0.1-0.6c-0.1-0.5-0.2-1-0.3-1.5c0-0.1,0-0.2-0.1-0.3c0-0.3-0.1-0.5-0.1-0.8c-0.1-0.5-0.2-1-0.3-1.5v-0.1
				c-0.1-0.3-0.1-0.7-0.2-1c-0.1-0.5-0.2-1.1-0.3-1.6c-0.1-0.3-0.1-0.7-0.2-1c-0.1-0.6-0.2-1.2-0.3-1.8c0-0.3-0.1-0.6-0.1-0.9l0,0
				c-0.1-0.8-0.3-1.7-0.4-2.5c0-0.3-0.1-0.6-0.1-0.9c-0.1-0.6-0.2-1.2-0.3-1.8c0-0.3-0.1-0.6-0.1-1c0-0.1,0-0.1,0-0.2
				c-0.1-0.5-0.2-1.1-0.2-1.6c0-0.3-0.1-0.5-0.1-0.8c0-0.2,0-0.3-0.1-0.5c-0.1-0.5-0.1-1-0.2-1.5c0-0.2-0.1-0.4-0.1-0.6
				c0-0.2-0.1-0.5-0.1-0.7c-0.1-0.5-0.1-1-0.2-1.5c0-0.1,0-0.2,0-0.3c0-0.3-0.1-0.6-0.1-1c-0.1-0.5-0.1-1.1-0.2-1.6
				c-0.1-0.4-0.1-0.8-0.2-1.2c-0.1-0.6-0.1-1.1-0.2-1.7c0-0.4-0.1-0.7-0.1-1.1l0,0c-0.1-0.6-0.2-1.3-0.2-1.9c0-0.2-0.1-0.5-0.1-0.7
				c0-0.3-0.1-0.6-0.1-0.8c-0.1-0.6-0.1-1.2-0.2-1.9c0-0.4-0.1-0.8-0.1-1.1c-0.1-0.6-0.1-1.2-0.2-1.7c0-0.3-0.1-0.7-0.1-1
				c0-0.2,0-0.3-0.1-0.5c-0.1-0.5-0.1-1-0.2-1.5c0-0.3-0.1-0.5-0.1-0.8s-0.1-0.5-0.1-0.8c-0.1-0.5-0.1-0.9-0.2-1.4
				c0-0.2,0-0.3-0.1-0.5c0-0.3-0.1-0.7-0.1-1c-0.1-0.5-0.1-1-0.2-1.6v-0.1c0-0.4-0.1-0.9-0.1-1.3c-0.1-0.5-0.1-1.1-0.2-1.6
				c0-0.4-0.1-0.9-0.1-1.3c-0.1-0.6-0.1-1.1-0.2-1.7c0-0.4-0.1-0.7-0.1-1.1c0-0.3,0-0.5-0.1-0.8c0-0.4-0.1-0.9-0.1-1.3
				c0-0.2,0-0.5-0.1-0.7c0-0.4-0.1-0.7-0.1-1.1c-0.1-0.6-0.1-1.2-0.2-1.8c0-0.4-0.1-0.8-0.1-1.2c0-0.1,0-0.3,0-0.4
				c0-0.5-0.1-1-0.1-1.5c0-0.3-0.1-0.6-0.1-0.9c0-0.3,0-0.6-0.1-0.8c0-0.4-0.1-0.8-0.1-1.3c0-0.2,0-0.5-0.1-0.7
				c0-0.4-0.1-0.8-0.1-1.1c0-0.4-0.1-0.9-0.1-1.3c0-0.1,0-0.2,0-0.3c0-0.5-0.1-0.9-0.1-1.4s-0.1-1-0.1-1.6c0-0.5-0.1-1-0.1-1.5
				s-0.1-1-0.1-1.5c0-0.4-0.1-0.9-0.1-1.3c0-0.2,0-0.4,0-0.6c0-0.4-0.1-0.7-0.1-1.1c0-0.4-0.1-0.7-0.1-1.1c0-0.3,0-0.6-0.1-0.9
				c0-0.4,0-0.7-0.1-1.1c0-0.3,0-0.6-0.1-0.8c0-0.4-0.1-0.8-0.1-1.2c0-0.6-0.1-1.2-0.1-1.7c0-0.4,0-0.7-0.1-1.1c0-0.3,0-0.7-0.1-1
				c0-0.3,0-0.6-0.1-1c0-0.3,0-0.6-0.1-0.9c0-0.4-0.1-0.9-0.1-1.3c0-0.4,0-0.7-0.1-1.1c0-0.2,0-0.3,0-0.5c0-0.5-0.1-1-0.1-1.5
				s-0.1-0.9-0.1-1.4c0-0.6-0.1-1.1-0.1-1.7c0-0.5-0.1-0.9-0.1-1.4s-0.1-1-0.1-1.5c0-0.1,0-0.3,0-0.4c0-0.4,0-0.7-0.1-1.1
				c0-0.5,0-0.9-0.1-1.4c0-0.2,0-0.5,0-0.7c0-0.3,0-0.6,0-1s0-0.8-0.1-1.3c0-0.3,0-0.6,0-0.9c0-0.2,0-0.5,0-0.7c0-0.4,0-0.9-0.1-1.3
				c0-0.3,0-0.7,0-1c0-0.6-0.1-1.3-0.1-1.9c0-0.3,0-0.6,0-1c0-0.6-0.1-1.1-0.1-1.7c0-0.2,0-0.3,0-0.5s0-0.5,0-0.7
				c0-0.6-0.1-1.2-0.1-1.8c0-0.4,0-0.8,0-1.2c0-0.6-0.1-1.3-0.1-1.9c0-0.4,0-0.8,0-1.2c0-0.6,0-1.2-0.1-1.8v-0.1c0-0.4,0-0.7,0-1.1
				c0-0.6,0-1.1-0.1-1.7c0-0.1,0-0.2,0-0.3c0-0.3,0-0.6,0-0.9c0-0.5,0-1.1-0.1-1.6c0-0.2,0-0.3,0-0.5s0-0.5,0-0.7
				c0-0.6,0-1.1-0.1-1.7c0-0.2,0-0.4,0-0.6c0-0.8-0.1-1.5-0.1-2.3c0-0.2,0-0.4,0-0.5c0-0.8-0.1-1.6-0.1-2.4c0-0.1,0-0.3,0-0.4
				c0-0.8,0-1.6-0.1-2.3c0-0.2,0-0.4,0-0.5c0-0.7,0-1.5-0.1-2.2c0-0.3,0-0.5,0-0.8c0-0.7,0-1.4-0.1-2.1c0-0.2,0-0.4,0-0.7h3.9
				c0.2,0,0.4,0,0.7,0c0.4,0,0.9-0.1,1.3-0.3c0.2-0.1,0.4-0.1,0.6-0.2c0.4-0.2,0.8-0.4,1.1-0.6c0.2-0.1,0.3-0.2,0.5-0.4
				c1-0.8,1.7-1.9,2.1-3.1c0.2-0.6,0.3-1.3,0.3-1.9v-21.8c0-0.7-0.1-1.3-0.3-1.9c-0.4-1.2-1.1-2.3-2.1-3.1c-0.2-0.1-0.3-0.3-0.5-0.4
				c-0.3-0.2-0.7-0.4-1.1-0.6c-0.2-0.1-0.4-0.2-0.6-0.2c-0.4-0.1-0.8-0.2-1.3-0.3c-0.2,0-0.4,0-0.7,0h-4.5
				c-0.1-6.4-0.1-12.7-0.1-18.8c0-33.9,0.7-63.1,1.3-81.9c2.3-7.8,5.5-13.8,7.9-18.3c1.7-2.9,3.1-5.9,4.1-9.2l0,0
				c0.1-0.3,0.2-0.7,0.3-1c0,0,0,0,0-0.1c0.1-0.3,0.2-0.6,0.3-1v-0.1c0.1-0.3,0.2-0.6,0.2-0.9c0-0.1,0-0.1,0-0.2
				c0.1-0.3,0.1-0.6,0.2-0.9c0-0.1,0-0.2,0-0.2c0.1-0.3,0.1-0.5,0.2-0.8c0-0.1,0-0.2,0-0.3c0-0.3,0.1-0.5,0.1-0.8c0-0.1,0-0.2,0-0.3
				c0-0.2,0.1-0.5,0.1-0.7c0-0.1,0-0.3,0-0.4c0-0.2,0.1-0.5,0.1-0.7s0-0.3,0-0.5s0-0.4,0-0.6s0-0.4,0-0.6s0-0.4,0-0.5
				c0-0.2,0-0.5,0-0.7c0-0.1,0-0.3,0-0.4c0-0.4,0-0.7,0-1.1l0.1-12.7l0,0c0-0.3,0-0.7,0-1c0-0.2,0-0.4,0-0.6c0-0.1,0-0.3,0-0.4
				c0-0.3,0-0.5-0.1-0.8l0,0c-0.1-1.5-0.3-3-0.6-4.5c0.1-0.6,0.2-1.3,0.2-2c0-1.9,0.9-6.2,2.3-11.9c0.1-0.6,0.3-1.1,0.4-1.7
				c2.5-10,6.4-23.5,10-35.3c0.1-0.3,0.2-0.6,0.3-0.8c0.1-0.4,0.3-0.8,0.4-1.3c0.4-1.3,0.8-2.6,1.2-3.9c0.1-0.4,0.2-0.8,0.4-1.2
				c0.1-0.5,0.3-0.9,0.4-1.3c0.1-0.3,0.2-0.7,0.3-1c0.1-0.4,0.2-0.8,0.2-1.1C190.5,224,190.5,223.7,190.5,223.4z"/>
			<g>
				<g>
					<path class="st7" d="M98.4,334.2c3.4-1,6.4-3.3,8.1-6.8c3.2-6.4,0.5-14.2-5.9-17.4c-0.4-0.2-28.3-14.5-44.8-46.2
						c-3.3-6.4-11.2-8.8-17.5-5.5c-6.4,3.3-8.8,11.2-5.5,17.5c20.6,39.6,54.9,56.8,56.4,57.5C92.1,334.9,95.4,335.1,98.4,334.2z"/>
				</g>
				<g>
					<path class="st7" d="M142.7,666.4c-12.9,0-24.4-9.1-27-22.1c-10-50-15.3-120.4-15.8-209.2c-0.3-65.6,2.1-116.1,2.3-118.2
						c0.8-15.2,13.7-26.9,28.9-26.1s26.9,13.7,26.1,28.9l0,0c-0.1,2-9.8,202.2,12.5,313.8c3,14.9-6.7,29.4-21.6,32.4
						C146.3,666.2,144.4,666.4,142.7,666.4z"/>
				</g>
				<path class="st8" d="M169.7,633.4c-22.3-111.6-12.6-311.8-12.5-313.8l0,0c0.8-15.2-10.9-28.1-26.1-28.9c-1.6-0.1-3.2,0-4.8,0.2
					c14.2,1.8,24.8,14.2,24.1,28.7l0,0c-0.1,2-9.8,202.2,12.5,313.8c3,14.9-6.7,29.4-21.6,32.4c-0.7,0.1-1.4,0.2-2,0.3
					c1.1,0.1,2.3,0.2,3.4,0.2c1.8,0,3.6-0.2,5.4-0.5C163,662.9,172.7,648.4,169.7,633.4z"/>
				<path class="st8" d="M97,326.6c3.2-6.4,0.5-14.2-5.9-17.4c-0.4-0.2-28.3-14.5-44.8-46.2c-1.3-2.5-3.4-4.4-5.7-5.6
					c5.8-1.7,12.3,0.8,15.2,6.4c16.5,31.7,44.4,46,44.8,46.2c6.4,3.2,9,10.9,5.9,17.4c-1.7,3.4-4.7,5.8-8.1,6.8
					c-3,0.9-6.3,0.6-9.3-0.8H89C92.4,332.4,95.3,330,97,326.6z"/>
				<path class="st9" d="M155.3,460.3c-13.5,0.1-27-0.2-40.6,0.2c-4.8,0.2-9.6,1.2-14.5,1.8c1.3,76.1,6.5,137.2,15.5,181.9
					c2.6,13.1,14.1,22.1,27,22.1c1.8,0,3.6-0.2,5.4-0.5c14.9-3,24.6-17.5,21.6-32.4C159.9,584.7,156.3,519,155.3,460.3z"/>
				<path d="M162.9,633.4c3,14.9-6.7,29.4-21.6,32.4c-0.7,0.1-1.4,0.2-2,0.3c1.1,0.1,2.3,0.2,3.4,0.2c1.8,0,3.6-0.2,5.4-0.5
					c14.9-3,24.6-17.5,21.6-32.4c-9.9-49.5-13.5-116.4-14.4-175.8c-2.3,0-4.6,0-6.8,0C149.4,517,153,583.9,162.9,633.4z"/>
				<g>
					<path class="st7" d="M95.7,285.9c7.1-0.4,12.5-6.4,12.1-13.5l-3.8-79.2c-0.3-7.1-6.4-12.6-13.5-12.3h-0.1
						c-7.1,0.4-12.5,6.4-12.1,13.5l3.8,79.2C82.4,280.7,88.5,286.2,95.7,285.9C95.6,285.9,95.6,285.9,95.7,285.9z"/>
				</g>
				<path class="st8" d="M87.4,281.5L87.4,281.5c7.2-0.4,12.6-6.4,12.2-13.5l-3.8-79.2c-0.1-3-1.3-5.6-3.1-7.7
					c6.1,0.8,10.9,5.8,11.2,12.2l3.8,79.2c0.3,7.1-5.1,13.1-12.1,13.5h-0.1c-4.2,0.2-7.9-1.6-10.4-4.5
					C85.8,281.5,86.6,281.5,87.4,281.5z"/>
				<g>
					<path class="st7" d="M122,266.9c5.6-1.1,9.8-6.1,9.8-12l0.1-75.3c0-6.8-5.5-12.3-12.2-12.3c-6.8,0-12.3,5.5-12.3,12.2
						l-0.1,75.3c0,6.8,5.5,12.3,12.2,12.3C120.4,267.1,121.2,267,122,266.9z"/>
				</g>
				<path class="st8" d="M112.3,262.8c5.6-1.1,9.8-6.1,9.8-12l0.1-75.3c0-3.2-1.2-6-3.2-8.2c0.2,0,0.4,0,0.6,0
					c6.8,0,12.2,5.5,12.2,12.3l-0.1,75.3c0,5.9-4.2,10.9-9.8,12c-0.8,0.2-1.6,0.2-2.5,0.2c-3.6,0-6.8-1.6-9.1-4
					C111.1,263,111.7,263,112.3,262.8z"/>
				<g>
					<path class="st7" d="M144.5,269.9c4.4-1.2,7.9-4.9,8.6-9.6l9.2-65.8c0.9-6.4-3.5-12.2-9.9-13.1c-6.4-0.9-12.2,3.5-13.1,9.9
						l-9.2,65.8c-0.9,6.4,3.5,12.2,9.9,13.1C141.5,270.4,143.1,270.3,144.5,269.9z"/>
				</g>
				<path class="st8" d="M133.2,265.3c1.6,0.2,3.1,0.1,4.6-0.3c4.4-1.2,7.9-4.9,8.6-9.6l9.2-65.8c0.4-2.9-0.3-5.7-1.8-8
					c5.7,1.4,9.5,7,8.6,12.9l-9.2,65.8c-0.7,4.8-4.2,8.5-8.6,9.6c-1.4,0.4-3,0.5-4.6,0.3c-3.4-0.5-6.3-2.4-8.1-5.1
					C132.3,265.1,132.7,265.2,133.2,265.3z"/>
				<g>
					<path class="st7" d="M123.7,345.9c26.1-0.5,46.9-20.4,46.4-44.5l0.1-12.7c-0.4-24.1-22-43.2-48.1-42.7l0,0
						c-26.1,0.5-46.9,20.4-46.4,44.5l-0.1,12.7C76.1,327.3,97.6,346.4,123.7,345.9L123.7,345.9z"/>
				</g>
				<g>
					<path class="st7" d="M161.6,290.3c4.7-1.3,8-5.6,8-10.7c0-6.1,9.1-37.1,15.3-57.5c2.1-6.8-0.9-14-6.6-15.8
						c-5.6-2.1-11.5,1-13.1,6.3c-3.7,12.5-17.8,55.1-17.6,67.2c0.1,6.1,5,11,11.1,10.9C159.7,290.7,160.7,290.5,161.6,290.3z"/>
				</g>
				<path class="st8" d="M130.2,318.8c0,0-5.9-15.5-15.5-23c-9.9-6.9-22-5.4-27.5-6.7c15.8-1.4,28.5,1.8,42.2,0.5s29.8-2.9,29.8-2.9
					S136.2,295.2,130.2,318.8z"/>
				<path class="st7" d="M71.7,322.1c15.8,10.4,28.9,21.3,28.9,39.1c0,17.7,14,12.1,14,12.1l-0.9-42.5L71.7,322.1z"/>
				<path class="st9" d="M159.6,477.2H99.5c-3.6,0-6.5-2.9-6.5-6.5v-21.8c0-3.6,2.9-6.5,6.5-6.5h60.1c3.6,0,6.5,2.9,6.5,6.5v21.8
					C166.1,474.3,163.2,477.2,159.6,477.2z"/>
				<path d="M159.6,442.4h-15.7c3.6,0,6.5,2.9,6.5,6.5v18.6c0,3.6-2.9,6.5-6.5,6.5H96.1c-0.9,0-1.7-0.2-2.4-0.5
					c1.1,2.2,3.3,3.7,5.8,3.7h60.1c3.6,0,6.5-2.9,6.5-6.5v-21.8C166.1,445.3,163.2,442.4,159.6,442.4z"/>
				<circle cx="110.4" cy="458.6" r="7.6"/>
				<circle class="st10" cx="109.6" cy="457.6" r="7.6"/>
				<circle class="st11" cx="109.6" cy="457.6" r="5.4"/>
				<circle class="st12" cx="107.9" cy="456.1" r="1.1"/>
				<circle class="st12" cx="111.1" cy="459.2" r="1.1"/>
				<line class="st13" x1="108.1" y1="456.1" x2="111.2" y2="459.3"/>
				<path class="st8" d="M146.6,340.7c0.1-8.6,0.8-8.3,1.8-9.8c8.6-8.1,13.8-19.2,13.5-31.3l0.1-12.7c0-2.5-0.3-4.9-0.8-7.2
					c0.1-0.6,0.2-1.3,0.2-2c0-6.1,9.3-37.7,15.9-59.2c1.2-3.8-0.4-9.6-4.1-12.6c1.6-0.3,3.4-0.2,5.1,0.4c5.7,1.8,8.7,9,6.6,15.8
					c-6.2,20.4-15.3,51.4-15.3,57.5c0,0.7-0.1,1.3-0.2,2c0.5,2.3,0.7,4.8,0.8,7.2l-0.1,12.7c0.1,5.9-1.1,11.6-3.3,16.8
					c-2.3,5.5-10.3,16.4-12.7,33.4c-1.9,9.4,0.4,36.2,0.4,36.2l-6.2-8.8C148.3,379.1,146.5,349.3,146.6,340.7z"/>
			</g>
			<path class="st3" d="M416.3,149.4c-6-11.6-14.7-21.8-25.1-29.7l0,0l0,0c-6.9-5.3-14.8-9.9-17.6-18.7c-1.5-4.8-0.9-10-0.8-15
				c0.1-6.8,0.2-13.6,0.3-20.4c0.1-7.8,0-15.5,0-23.3h0.3c2.3,0,4.2-1.9,4.2-4.2V24c0-2.3-1.9-4.2-4.2-4.2h-0.7
				c-0.9-34.8-2.7-69.9-9.1-104.1c-0.9-4.6-2-8.9-5.4-12.3c-3.3-3.4-7.9-5.3-12.6-5.3c-6.9,0-13.2,4.1-16.1,10.3
				c-1.8,3.9-1.9,7.9-1.1,12c0.8,4.3,1.6,8.6,2.2,12.9c2.7,18.1,4.3,36.3,5.3,54.5c0.6,10.7,1,21.3,1.3,32h-2.5
				c-2.3,0-4.2,1.9-4.2,4.2v14c0,2.3,1.9,4.2,4.2,4.2h2.9c0.3,30.9-0.5,57.5-1,70.5c-5.5,5.2-8.9,12.3-8.7,20.2v8.2
				c0,1.6,0.2,3.1,0.5,4.7c-0.5,2.7-0.7,5.5-1.3,8.2c-0.9,3.8-1.9,7.6-2.9,11.4c-1,3.8-2,7.5-3,11.3c-1,3.9-0.6,8.5,3.2,10.8l0,0
				c0.2,0.1,0.5,0.3,0.8,0.4c1.8,0.8,3.9,0.5,5.5-0.5c1.7-1.1,2.4-2.7,3-4.6c1.4-4.5,2.8-9,4.1-13.6l-3.3,26.7
				c-0.5,3.3,1.2,6.3,4.1,7.4l0,0c3.9,1.3,9.4-1,9.9-5.4l4.3-29.5l0.7,35.4c0.2,3.8,3.9,7,8,6.7c4.5-0.3,7.6-3.9,7.5-7.3l-0.6-36.3
				c0.2-0.1,0.4-0.1,0.6-0.2l1.8,29.5c0.4,3.2,4.4,5,8.9,3.9c4-1.2,7.1-4.4,6.9-8.6c-0.1-2.3-0.2-4.8-0.3-7.5
				c-0.4-8.7-0.8-16.9-1.1-24.2c-0.1-1.9-0.2-3.8-0.2-5.7c2.6-4.3,4-9.2,3.9-14.2v-0.4c3.3,3.3,6.2,6.8,8.8,10.7
				c1.4,2.1,2.7,4.3,3.9,6.5c1,1.9,2.4,3.4,4.5,4.2l0,0C412.8,163.8,419.8,156.2,416.3,149.4C416.1,149,418.4,153.5,416.3,149.4z"/>
			<g>
				<g>
					<path class="st7" d="M370.2,109.1c-2.2,0.6-4.1,2.1-5.2,4.4c-2,4.1-0.3,9.1,3.8,11.2c0.3,0.1,18.2,9.3,28.9,29.7
						c2.1,4.1,7.1,5.7,11.3,3.5c4.1-2.1,5.7-7.2,3.5-11.3c-13.3-25.5-35.3-36.5-36.3-37C374.2,108.7,372.1,108.6,370.2,109.1z"/>
				</g>
				<g>
					<path class="st7" d="M329.5,137.4c-3,0.9-5.2,3.6-5.1,6.9c0,3.9-5,21.8-7.5,31.1c-0.9,3.4,0.8,8.2,4.3,9.7
						c3.4,1.6,7.1-0.8,8-3.7c2.2-6.8,9.4-29.5,9.3-37.3c0-3.9-3.2-7.1-7.2-7C330.7,137.2,330.1,137.2,329.5,137.4z"/>
				</g>
				<path class="st8" d="M331.4,137.1c-0.7,0-1.3,0.1-1.9,0.3c-0.4,0.1-0.8,0.3-1.1,0.4c2.4,1.1,4,3.5,4,6.3
					c0.1,7.8-6.9,30-8.8,36.6c-0.4,1.3-1.7,3.1-3.1,4c0.2,0.1,0.5,0.3,0.8,0.4c3.4,1.6,7.1-0.8,8-3.7c2.2-6.8,9.4-29.5,9.3-37.3
					C338.5,140.3,335.3,137.1,331.4,137.1z"/>
				<g>
					<path class="st7" d="M341.7-104.6c8.3,0,15.7,5.8,17.4,14.3c6.4,32.2,9.9,77.5,10.2,134.6c0.2,42.2-1.4,74.7-1.5,76.1
						c-0.5,9.8-8.8,17.3-18.6,16.8c-9.8-0.5-17.3-8.8-16.8-18.6l0,0c0.1-1.3,6.3-130.1-8.1-202c-1.9-9.6,4.3-18.9,13.9-20.9
						C339.4-104.5,340.6-104.6,341.7-104.6z"/>
				</g>
				<path class="st8" d="M369.2,44.2C368.9-13,365.5-58.3,359-90.4c-1.7-8.4-9.1-14.3-17.4-14.3c-1,0-2,0.1-3.1,0.3
					c7,1.2,12.8,6.6,14.3,14c6.4,32.2,9.9,77.5,10.2,134.6c0.2,42.2-1.4,74.7-1.5,76.1c-0.4,8.4-6.7,15.2-14.6,16.6
					c0.7,0.1,1.4,0.2,2.2,0.2c9.8,0.5,18.1-7,18.6-16.8C367.8,118.9,369.4,86.5,369.2,44.2z"/>
				<path class="st14" d="M333.6,28c8.7-0.1,17.4,0.1,26.1-0.1c3.1-0.1,6.2-0.8,9.4-1.2c-0.9-49-4.2-88.3-10-117.1
					c-1.7-8.4-9.1-14.3-17.4-14.3c-1.2,0-2.3,0.1-3.5,0.3c-9.6,1.9-15.8,11.3-13.9,20.9C330.6-52,332.9-9.8,333.6,28z"/>
				<g>
					<path class="st5" d="M359.1-90.4c-1.7-8.4-9.1-14.3-17.4-14.3c-1,0-2,0.1-3.1,0.3c7,1.2,12.8,6.6,14.3,14
						c5.8,28.8,9.1,68.1,10,117.1c-3.2,0.4-6.3,1-9.4,1.2c-3,0.1-5.9,0.1-8.8,0.1c5,0,10,0,15-0.1c3.1-0.1,6.2-0.8,9.4-1.2
						C368.2-22.3,364.8-61.6,359.1-90.4z"/>
					<path class="st15" d="M333.6,28L333.6,28c0.5,0,1.1,0,1.6,0C334.6,28,334.1,28,333.6,28z"/>
				</g>
				<g>
					<path class="st7" d="M372,140.2c-4.5,0.3-8,4.1-7.8,8.7l2.7,44.2c0.5,3.5,4.5,5.9,8.9,5.1h0.1c4.3-0.9,7.3-4.8,6.8-8l-1.9-42
						C380.5,143.5,376.6,140,372,140.2L372,140.2z"/>
				</g>
				<g>
					<path class="st7" d="M355,152.5c-3.6,0.7-6.3,3.9-6.3,7.7l0.8,40.6c0.2,3.9,3.6,7.1,7.8,6.9c4.3,0,7.8-3.3,7.7-7.3l-0.6-40.3
						c0-4.4-3.5-7.9-7.9-7.9C356,152.3,355.5,152.4,355,152.5z"/>
				</g>
				<path class="st8" d="M356.6,152.3c-0.5,0-1.1,0.1-1.6,0.2c-0.5,0.1-1,0.3-1.5,0.5c2.8,1.2,4.8,4,4.8,7.3l0.6,40.3
					c0.1,2.9-1.8,5.5-4.5,6.7c0.9,0.4,1.9,0.5,2.9,0.5c4.3-0.1,7.8-3.3,7.7-7.3l-0.6-40.3C364.4,155.9,360.9,152.3,356.6,152.3z"/>
				<g>
					<path class="st7" d="M340.5,150.5c-2.8,0.7-5.1,3.1-5.5,6.2l-4.5,36.4c-0.6,4,2.1,7.6,6.1,7.7c4,0.1,7.6-2.5,7.9-5.8l5.4-36.2
						c0.6-4.1-2.3-7.9-6.4-8.5C342.4,150.2,341.4,150.3,340.5,150.5z"/>
				</g>
				<path class="st8" d="M343.4,150.4c-1-0.1-2-0.1-2.9,0.2c-0.4,0.1-0.8,0.2-1.2,0.4c3,1.3,4.8,4.5,4.3,7.9l-5.1,36.3
					c-0.2,2.2-1.8,4.2-4,5.4c0.6,0.2,1.3,0.3,2,0.3c4,0.1,7.5-2.5,7.9-5.8l5.4-36.2C350.4,154.7,347.5,151,343.4,150.4z"/>
				<g>
					<path class="st7" d="M353.9,101.6c-16.8,0.3-30.2,13.1-29.9,28.6v8.2c0.3,15.5,14.1,27.8,30.8,27.4l0,0
						c16.8-0.1,30.3-13,30-28.5v-8.2C384.5,113.6,370.7,101.3,353.9,101.6L353.9,101.6z"/>
				</g>
				<path class="st8" d="M349.7,119c0,0,3.8,10,10,14.8c6.4,4.4,14.1,3.5,17.7,4.3c-10.2,0.9-18.3-1.2-27.2-0.3
					c-8.8,0.8-19.2,1.9-19.2,1.9S345.8,134.3,349.7,119z"/>
				<path class="st7" d="M387.4,116.9c-10.1-6.7-18.6-13.7-18.6-25.2s-9-7.8-9-7.8l0.6,27.4L387.4,116.9z"/>
				<g>
					<path class="st8" d="M412.5,146.7c-7.4-14.1-17.4-23.8-25.1-29.7l0,0l0,0c-2.3-1.8-4.4-3.2-6.1-4.3
						c-7.2-5.5-12.5-11.8-12.5-20.8c0-6.9-3.3-8.3-5.9-8.3c-0.1,3.5-0.3,7.4-0.3,8.3c0,9,5.3,15.3,12.5,20.8
						c1.7,1.1,3.8,2.5,6.1,4.3l0,0l0,0c7.7,5.9,17.7,15.6,25.1,29.7c2.1,4.1,0.5,9.1-3.6,11.3c-0.3,0.1-0.5,0.3-0.8,0.4
						c2.2,0.9,4.7,0.8,6.9-0.4C413,155.8,414.6,150.8,412.5,146.7z"/>
					<path class="st8" d="M380.9,151.5c1.5-2.5,3.9-7.2,3.9-14.2c-1.8-2.3-5-4-5-4s0.7,1.9,0.7,6.4s-1.7,8.2-5.8,11.8l2.1,40
						c0.4,2.5-1.5,5.2-4.5,6.7c1.1,0.2,2.2,0.2,3.4,0h0.1c4.3-0.9,7.3-4.8,6.8-8L380.9,151.5z"/>
				</g>
				<path class="st14" d="M330.8,17.1h38.7c2.3,0,4.2,1.9,4.2,4.2v14c0,2.3-1.9,4.2-4.2,4.2h-38.7c-2.3,0-4.2-1.9-4.2-4.2v-14
					C326.6,19,328.5,17.1,330.8,17.1z"/>
				<path class="st5" d="M369.5,39.5h-10.1c2.3,0,4.2-1.9,4.2-4.2v-12c0-2.3-1.9-4.2-4.2-4.2h-30.7c-0.5,0-1.1,0.1-1.6,0.3
					c0.7-1.4,2.1-2.4,3.8-2.4h38.7c2.3,0,4.2,1.9,4.2,4.2v14C373.7,37.6,371.8,39.5,369.5,39.5z"/>
				<circle class="st16" cx="364" cy="30.7" r="4.9"/>
				<circle class="st10" cx="363" cy="29.7" r="4.9"/>
				<circle class="st17" cx="363" cy="29.7" r="3.4"/>
				<circle class="st12" cx="364" cy="30.7" r="0.7"/>
				<circle class="st12" cx="362" cy="28.7" r="0.7"/>
				<line class="st18" x1="364" y1="30.7" x2="361.9" y2="28.6"/>
			</g>
		</g>
		<g>
			<path class="st19" d="M125.3,413.4V380c0-25,16-45.2,35.7-45.2l0,0c19.7,0,35.7,20.3,35.7,45.2v11.3c0,17.3,11,31.3,24.6,31.3
				h1.1c13.6,0,24.6-14,24.6-31.3V281.2c0-17.3,11-31.3,24.6-31.3l0,0c13.6,0,24.6,14,24.6,31.3v41.5"/>
			<g>
				<path class="st4" d="M132.3,410.4c0.5,1,0.6,2,0.7,3.1c0,1,0,2-0.2,3.1c-0.2,1-0.5,2-0.9,3.1c-0.1,0.3-0.2,0.5-0.3,0.8
					s-0.1,0.5-0.4,0.8c-0.3,0.3-1.7,0.5-2.7,0.8l-0.8,0.2c-0.2,0.1-0.3,0.1-0.5,0.2c-0.3,0.1-0.3,0.3-0.3,0.4
					c-0.4,2-0.7,4.1-0.9,6.1c-0.2,2-0.3,4.1-0.1,6.1c0,0.4-0.2,0.7-0.6,0.7s-0.7-0.2-0.7-0.6v-0.1c0.2-2,0.1-4.1-0.1-6.1
					s-0.5-4.1-0.9-6.1c0-0.1,0-0.3-0.3-0.4c-0.2-0.1-0.3-0.1-0.5-0.2l-0.8-0.2c-1-0.3-2.4-0.5-2.7-0.8c-0.2-0.3-0.2-0.5-0.4-0.8
					c-0.1-0.3-0.2-0.5-0.3-0.8c-0.4-1-0.7-2-0.9-3.1c-0.2-1-0.3-2-0.2-3.1c0.1-1,0.2-2,0.7-3.1c1.8-3.9,6.4-5.5,10.3-3.7
					C130.3,407.5,131.6,408.9,132.3,410.4z"/>
			</g>
			<g>
				<rect x="110" y="397.6" class="st4" width="29.6" height="7.1"/>
				<path class="st20" d="M129,403.8h-8.5c-1.5,0-2.6-1.2-2.6-2.6l0,0c0-1.5,1.2-2.6,2.6-2.6h8.5c1.5,0,2.6,1.2,2.6,2.6l0,0
					C131.7,402.6,130.5,403.8,129,403.8z"/>
			</g>
			<g>
				<rect x="110" y="377.7" class="st4" width="29.6" height="7.1"/>
				<path class="st20" d="M129,383.9h-8.5c-1.5,0-2.6-1.2-2.6-2.6l0,0c0-1.5,1.2-2.6,2.6-2.6h8.5c1.5,0,2.6,1.2,2.6,2.6l0,0
					C131.7,382.8,130.5,383.9,129,383.9z"/>
			</g>
		</g>
		<g>
			<path class="st21" d="M338.5,349.4v-93c0-15-13-27.2-29-27.2l0,0c-16,0-29-12.2-29-27.2v-68c0-13.1,11.3-23.7,25.2-23.7l0,0
				c13.9,0,25.2-10.6,25.2-23.7v-31"/>
			<path class="st21" d="M331,63.7v36.5c0,13.9-11.3,25.2-25.2,25.2l0,0c-13.9,0-25.2,11.3-25.2,25.2v54.6
				c0,13.9,11.3,25.2,25.2,25.2h1.1c13.9,0,25.2,11.3,25.2,25.2v65.6"/>
			<path class="st19" d="M351,63.7v25.5c0,13.9-11.3,25.2-25.2,25.2l0,0c-13.9,0-25.2,11.3-25.2,25.2v42.5
				c0,28.1,22.7,50.8,50.8,50.8l0,0c28.1,0,30.8,22.7,30.8,50.8v46.8"/>
			<g>
				<g>
					<path class="st4" d="M344.2,65.7c-0.8-2-0.7-3.9-0.4-5.9c0.2-1,0.5-2,0.8-2.9c0.1-0.2,0.2-0.5,0.3-0.7c0.1-0.2,0.1-0.5,0.4-0.7
						s1.6-0.5,2.6-0.7l0.8-0.2c0.2-0.1,0.3-0.1,0.5-0.2c0.3-0.1,0.2-0.2,0.3-0.4c0.4-2,0.7-3.9,0.9-5.9c0.2-2,0.3-3.9,0.1-5.9
						c0-0.3,0.2-0.6,0.6-0.7c0.3,0,0.6,0.2,0.7,0.6v0.1c-0.2,2-0.1,3.9,0.1,5.9s0.5,3.9,0.9,5.9c0,0.1,0,0.2,0.3,0.4
						c0.2,0.1,0.3,0.1,0.5,0.2l0.8,0.2c1,0.2,2.3,0.5,2.6,0.7c0.2,0.2,0.2,0.5,0.4,0.7c0.1,0.2,0.2,0.5,0.3,0.7c0.4,1,0.6,2,0.8,2.9
						c0.3,2,0.4,3.9-0.4,5.9c-1.6,3.7-5.9,5.4-9.6,3.8C346.3,68.7,345,67.3,344.2,65.7z"/>
				</g>
				<g>
					<rect x="337.3" y="71.2" class="st4" width="28.3" height="6.8"/>
					<path class="st20" d="M347.4,72.1h8.1c1.4,0,2.5,1.1,2.5,2.5l0,0c0,1.4-1.1,2.5-2.5,2.5h-8.1c-1.4,0-2.5-1.1-2.5-2.5l0,0
						C344.9,73.2,346,72.1,347.4,72.1z"/>
				</g>
				<g>
					<rect x="337.3" y="90.2" class="st4" width="28.3" height="6.8"/>
					<path class="st20" d="M347.4,91h8.1c1.4,0,2.5,1.1,2.5,2.5l0,0c0,1.4-1.1,2.5-2.5,2.5h-8.1c-1.4,0-2.5-1.1-2.5-2.5l0,0
						C344.9,92.2,346,91,347.4,91z"/>
				</g>
			</g>
		</g>
	</g>
</g>
<g id="DESIGNED_BY_FREEPIK">
</g>
</svg>
