<?xml version="1.0" encoding="utf-8"?>
<!-- Generator: Adobe Illustrator 21.0.0, SVG Export Plug-In . SVG Version: 6.00 Build 0)  -->
<svg version="1.1" id="Layer_1" xmlns="http://www.w3.org/2000/svg" xmlns:xlink="http://www.w3.org/1999/xlink" x="0px" y="0px"
	 viewBox="0 0 635 546" style="enable-background:new 0 0 635 546;" xml:space="preserve">
<style type="text/css">
	.st0{fill:#FFFFFF;}
	.st1{fill:#DC3545;}
	.st2{fill:#392D2C;}
	.st3{fill:#2D2322;}
	.st4{fill:#B6B6B7;}
	.st5{fill:#B9B9B9;}
</style>
<g id="_x23_d32436ff">
	<path class="st0" d="M277,83c13.8-16.7,27.9-33.3,43.1-48.9c1,1,2,1.9,3,2.9c37,43,74,86.1,105.9,133.1c21.7,31.8,41,65.4,56.1,101
		c1.3,3.1,1.9,6.5,3.5,9.5c2.4,4.4,6.5,7.5,10.3,10.7c4.4-7.6,11.4-13.6,19.8-16.4c14.3-4.9,29.9-3,44.1,1.1
		c-12.6-11.9-19.4-28.3-25.2-44.2c-2.2-5.6-3.9-11.3-6.5-16.7c-1-2.4-3.9-3.2-6.2-2.6c-7,1.6-12.6,7.3-19.8,8.1
		c-3.9-0.1-3.9-4.7-4.4-7.5c-1.4-0.4-2.9-1.6-4.3-0.6c-3.2,2.1-4.3,6.4-7.9,8.1c-4.1,1.3-9,2.8-13.1,0.3c-6.1-3.8-9-11-10.3-17.8
		c-0.8-4.7-2.6-9.2-2.1-14c0.6-10.1,7.5-19.4,16.6-23.5c6.5-2.4,13.4-4.3,20.4-3.4c10.4,1.1,19.9,6.2,27.9,12.7
		c17.6,14.8,34.4,30.5,49.6,47.7c11.8,13.1,21.7,27.8,31.6,42.4c4,6.1,7.4,12.8,8.3,20.1c0.3,4.6,0.1,9.8-3.1,13.4
		c-6,7.6-11.8,15.5-17.5,23.4c-4.4,6.4-11.2,10.5-17.8,14.3c-15,7.7-32.5,10.3-49.2,8.4c-7-0.4-13.8-4.1-21-2.4
		c-6.9,1.3-14.8,6-15,13.9c-6.7,36.1-25.2,69.8-51.7,95.1c-38.1,37.1-93.7,54.9-146.2,47.6c-7.1-0.8-13.9-2.7-21-3.7
		c-60.9-15.1-111.4-65.5-127-126.2c-1.1-3.6-1-8-4.3-10.6c-5.9-5.7-11.3-12.9-19.6-15.4c-4.7-1.5-9.5-0.1-14.1,0.9
		c-18.4,3.9-38,2-55.1-6c-8.2-4.2-16.2-9.6-21.7-17.2c-4.2-6-7.9-12.5-13.3-17.6c-3.4-3.1-5.4-7.4-5.9-11.9
		c-0.8-8.3,2.3-16.4,6.5-23.4c20.2-32.5,45.5-61.7,75.2-85.8c9.1-9.9,21.3-17.2,34.7-19.1c10.2-1.5,21.3,0.6,29.3,7.6
		c5.4,4.2,8.6,10.8,9.1,17.6c0.6,9.3-2.3,18.4-6,26.8c-3.6,8.9-17.4,9.8-22.9,2.4c-1.3-1.8-2.7-3.5-4.1-5.2
		c-1.2,0.1-2.4,0.1-3.5,0.3c-1.1,3-1.1,7.8-5.3,8.2c-8.8-0.4-15.4-9.8-24.7-7.6c-8.2,17.5-12.5,36.9-23.7,52.8
		c-2.5,3.8-5.9,6.9-8.8,10.3c14.5-4.4,30.5-6,45-0.6c7.4,3.2,15.3,8.3,17.8,16.4c3.3-3.1,6.5-6.6,10.6-8.6c2.7-1.7,5.9-2.4,8.4-4.3
		c19.8-53.1,52.3-100.1,85.9-145.3C250,116.2,263.6,99.7,277,83 M299.3,89.3c-19.9,10.4-32.9,29.5-45.6,47.3
		c-4.4,5.6-7.6,12-10.7,18.3c-2.7,5.9-5.7,12.2-4.9,18.8c2.8,4.3,9,3.7,12.9,1.3c8-4.9,14-12.5,18.6-20.5c9.4-14.8,16.4-31,26.9-45
		c4.1-4.7,5.6-10.8,7.6-16.5C305.6,90.1,301.6,87.3,299.3,89.3 M220.4,188.4c-8.8,3.7-15,11.6-19.1,19.9c-3,6.2-6.9,12.5-6,19.7
		c0.4,4.1,4.1,8.5,8.5,7.7c4.9-0.7,9.3-3.7,12.2-7.7c4.7-6.4,7.3-14.1,10.8-21.3c2.3-5,4.2-10.9,2-16.3
		C227.1,187.4,223.1,187.3,220.4,188.4 M370.5,248.6c-9.4,4.7-12.5,16.8-10.1,26.4c1.6,6,6.2,11.7,12.6,12.7
		c4.9,0.5,9.9-2.1,12.5-6.3c4-6.3,4.4-14.3,2.3-21.3C385.8,252.7,378.3,246.3,370.5,248.6 M252.4,249.6c-9.9,5.5-11.7,18.9-7.7,28.6
		c1.8,5.3,6.6,9.7,12.3,10.1c5.2,0.3,8.6-4.4,11.2-8.1c4.3-6.2,4.4-14.3,1.9-21.1C268.2,251.9,259.6,246.4,252.4,249.6 M261.4,319.5
		c1.9,24.2,22.5,45.4,46.5,48.3c12.3,1.2,25.5-0.1,36.1-6.9c14.6-8.8,25.1-24.4,26.6-41.5C334.2,319.7,297.8,319.6,261.4,319.5z"/>
</g>
<g id="_x23_f84949ff">
	<path class="st1" d="M299.3,89.3c2.4-2,6.3,0.8,4.9,3.7c-2,5.7-3.5,11.9-7.6,16.5c-10.5,14.1-17.6,30.2-26.9,45
		c-4.7,8-10.7,15.6-18.6,20.5c-3.9,2.4-10.1,3-12.9-1.3c-0.8-6.6,2.2-12.9,4.9-18.8c3.2-6.3,6.3-12.7,10.7-18.3
		C266.4,118.8,279.4,99.8,299.3,89.3z"/>
	<path class="st1" d="M220.4,188.4c2.8-1.2,6.7-1,8.3,1.9c2.3,5.3,0.4,11.3-2,16.3c-3.4,7.2-6,14.8-10.8,21.3
		c-2.9,4-7.3,7.1-12.2,7.7c-4.4,0.9-8.2-3.6-8.5-7.7c-0.9-7.1,3-13.5,6-19.7C205.4,200,211.6,192.1,220.4,188.4z"/>
</g>
<g id="_x23_392d2cff">
	<path class="st2" d="M370.5,248.6c7.8-2.3,15.4,4.1,17.3,11.5c2.1,7,1.7,15.1-2.3,21.3c-2.6,4.1-7.6,6.7-12.5,6.3
		c-6.4-1-11-6.7-12.6-12.7C358,265.4,361.1,253.3,370.5,248.6 M373.4,262.5c-4.5,2-4.6,10.3,0.5,11.8c3.3,0,3.9-3.8,4.4-6.2
		C379.1,265.2,376.5,261.5,373.4,262.5z"/>
</g>
<g id="_x23_2d2322ff">
	<path class="st3" d="M252.4,249.6c7.2-3.2,15.8,2.3,17.7,9.5c2.6,6.9,2.4,15-1.9,21.1c-2.6,3.8-6,8.4-11.2,8.1
		c-5.6-0.5-10.5-4.8-12.3-10.1C240.7,268.5,242.5,255.1,252.4,249.6 M256.5,262.5c-4.3,2.2-5.4,9.6-0.4,11.6c4.4,0.5,5.6-4.9,5-8.2
		C260.9,263.9,258.5,261.5,256.5,262.5z"/>
</g>
<g id="_x23_b6b6b7ff">
	<path class="st4" d="M256.5,262.5c2.1-1,4.5,1.3,4.6,3.4c0.6,3.3-0.6,8.7-5,8.2C251.1,272.1,252.2,264.7,256.5,262.5z"/>
</g>
<g id="_x23_b9b9b9ff">
	<path class="st5" d="M373.4,262.5c3.1-1,5.7,2.7,4.9,5.5c-0.5,2.5-1.1,6.3-4.4,6.2C368.8,272.8,368.9,264.5,373.4,262.5z"/>
</g>
<g id="_x23_fdf8f6ff">
	<path class="st1" d="M261.4,319.5c36.4,0.1,72.9,0.1,109.3,0c-1.5,17.1-12,32.7-26.6,41.5c-10.7,6.8-23.8,8.1-36.1,6.9
		C283.8,364.9,263.3,343.8,261.4,319.5z"/>
</g>
</svg>
